<mxfile host="app.diagrams.net" modified="2022-08-24T07:40:22.217Z" agent="5.0 (Windows NT 10.0; Win64; x64) AppleWebKit/537.36 (KHTML, like Gecko) Chrome/100.0.4896.127 Safari/537.36" etag="GHOu2V_ZeXRdsG6IfWZP" version="20.2.6" type="github" pages="4">
  <diagram id="hYu6waVMLecW7c-SfMj-" name="Load Task">
    <mxGraphModel dx="865" dy="434" grid="0" gridSize="10" guides="1" tooltips="1" connect="1" arrows="1" fold="1" page="1" pageScale="1" pageWidth="827" pageHeight="1169" math="0" shadow="0">
      <root>
        <mxCell id="0" />
        <mxCell id="1" parent="0" />
        <mxCell id="ZX4JJenaqiCQQKovVCNi-36" value=":LoadTaskHandler" style="shape=umlLifeline;perimeter=lifelinePerimeter;whiteSpace=wrap;html=1;container=1;collapsible=0;recursiveResize=0;outlineConnect=0;strokeWidth=2;fontStyle=1" vertex="1" parent="1">
          <mxGeometry x="2" y="200" width="120" height="330" as="geometry" />
        </mxCell>
        <mxCell id="ZX4JJenaqiCQQKovVCNi-40" value="" style="html=1;points=[];perimeter=orthogonalPerimeter;strokeWidth=2;" vertex="1" parent="ZX4JJenaqiCQQKovVCNi-36">
          <mxGeometry x="55" y="60" width="10" height="260" as="geometry" />
        </mxCell>
        <mxCell id="ZX4JJenaqiCQQKovVCNi-37" value=":DataDao" style="shape=umlLifeline;perimeter=lifelinePerimeter;whiteSpace=wrap;html=1;container=1;collapsible=0;recursiveResize=0;outlineConnect=0;strokeWidth=2;fontStyle=1" vertex="1" parent="1">
          <mxGeometry x="172" y="200" width="120" height="330" as="geometry" />
        </mxCell>
        <mxCell id="ZX4JJenaqiCQQKovVCNi-41" value="" style="html=1;points=[];perimeter=orthogonalPerimeter;strokeWidth=2;" vertex="1" parent="ZX4JJenaqiCQQKovVCNi-37">
          <mxGeometry x="55" y="60" width="10" height="80" as="geometry" />
        </mxCell>
        <mxCell id="ZX4JJenaqiCQQKovVCNi-38" value=":AsyncBuildTaskHandler" style="shape=umlLifeline;perimeter=lifelinePerimeter;whiteSpace=wrap;html=1;container=1;collapsible=0;recursiveResize=0;outlineConnect=0;strokeWidth=2;fontStyle=1" vertex="1" parent="1">
          <mxGeometry x="506" y="200" width="160" height="330" as="geometry" />
        </mxCell>
        <mxCell id="ZX4JJenaqiCQQKovVCNi-43" value="" style="html=1;points=[];perimeter=orthogonalPerimeter;strokeWidth=2;" vertex="1" parent="ZX4JJenaqiCQQKovVCNi-38">
          <mxGeometry x="75" y="160" width="10" height="100" as="geometry" />
        </mxCell>
        <mxCell id="ZX4JJenaqiCQQKovVCNi-39" value=":Database" style="shape=umlLifeline;perimeter=lifelinePerimeter;whiteSpace=wrap;html=1;container=1;collapsible=0;recursiveResize=0;outlineConnect=0;strokeWidth=2;fontStyle=1" vertex="1" parent="1">
          <mxGeometry x="346" y="200" width="120" height="330" as="geometry" />
        </mxCell>
        <mxCell id="ZX4JJenaqiCQQKovVCNi-42" value="" style="html=1;points=[];perimeter=orthogonalPerimeter;strokeWidth=2;" vertex="1" parent="ZX4JJenaqiCQQKovVCNi-39">
          <mxGeometry x="55" y="60" width="10" height="60" as="geometry" />
        </mxCell>
        <mxCell id="ZX4JJenaqiCQQKovVCNi-44" value="load available data" style="html=1;verticalAlign=bottom;endArrow=block;rounded=0;strokeWidth=2;" edge="1" parent="1" target="ZX4JJenaqiCQQKovVCNi-37">
          <mxGeometry width="80" relative="1" as="geometry">
            <mxPoint x="65" y="260" as="sourcePoint" />
            <mxPoint x="145" y="260" as="targetPoint" />
          </mxGeometry>
        </mxCell>
        <mxCell id="ZX4JJenaqiCQQKovVCNi-46" value="execute query" style="html=1;verticalAlign=bottom;endArrow=block;rounded=0;entryX=-0.031;entryY=0.217;entryDx=0;entryDy=0;entryPerimeter=0;strokeWidth=2;" edge="1" parent="1" target="ZX4JJenaqiCQQKovVCNi-42">
          <mxGeometry width="80" relative="1" as="geometry">
            <mxPoint x="238" y="272.98" as="sourcePoint" />
            <mxPoint x="406.6700000000001" y="272.98" as="targetPoint" />
          </mxGeometry>
        </mxCell>
        <mxCell id="ZX4JJenaqiCQQKovVCNi-52" value="return data" style="html=1;verticalAlign=bottom;endArrow=open;dashed=1;endSize=8;rounded=0;exitX=0;exitY=1;exitDx=0;exitDy=0;exitPerimeter=0;strokeWidth=2;" edge="1" parent="1" source="ZX4JJenaqiCQQKovVCNi-42" target="ZX4JJenaqiCQQKovVCNi-41">
          <mxGeometry relative="1" as="geometry">
            <mxPoint x="350" y="320" as="sourcePoint" />
            <mxPoint x="270" y="320" as="targetPoint" />
          </mxGeometry>
        </mxCell>
        <mxCell id="ZX4JJenaqiCQQKovVCNi-53" value="return available data" style="html=1;verticalAlign=bottom;endArrow=open;dashed=1;endSize=8;rounded=0;strokeWidth=2;" edge="1" parent="1" source="ZX4JJenaqiCQQKovVCNi-37" target="ZX4JJenaqiCQQKovVCNi-40">
          <mxGeometry relative="1" as="geometry">
            <mxPoint x="190" y="340" as="sourcePoint" />
            <mxPoint x="70" y="340" as="targetPoint" />
            <Array as="points">
              <mxPoint x="180" y="340" />
            </Array>
          </mxGeometry>
        </mxCell>
        <mxCell id="ZX4JJenaqiCQQKovVCNi-54" value=":InMemoryCache" style="shape=umlLifeline;perimeter=lifelinePerimeter;whiteSpace=wrap;html=1;container=1;collapsible=0;recursiveResize=0;outlineConnect=0;strokeWidth=2;fontStyle=1" vertex="1" parent="1">
          <mxGeometry x="681" y="200" width="138" height="330" as="geometry" />
        </mxCell>
        <mxCell id="ZX4JJenaqiCQQKovVCNi-64" value="" style="html=1;points=[];perimeter=orthogonalPerimeter;strokeWidth=2;" vertex="1" parent="ZX4JJenaqiCQQKovVCNi-54">
          <mxGeometry x="64" y="276" width="10" height="44" as="geometry" />
        </mxCell>
        <mxCell id="ZX4JJenaqiCQQKovVCNi-56" value="submit each data on a thread" style="html=1;verticalAlign=bottom;endArrow=block;rounded=0;entryX=0.04;entryY=0.037;entryDx=0;entryDy=0;entryPerimeter=0;strokeWidth=2;" edge="1" parent="1" source="ZX4JJenaqiCQQKovVCNi-40" target="ZX4JJenaqiCQQKovVCNi-43">
          <mxGeometry width="80" relative="1" as="geometry">
            <mxPoint x="70" y="362" as="sourcePoint" />
            <mxPoint x="596.3299999999999" y="363.27999999999986" as="targetPoint" />
          </mxGeometry>
        </mxCell>
        <mxCell id="ZX4JJenaqiCQQKovVCNi-60" value="return built tasks" style="html=1;verticalAlign=bottom;endArrow=open;dashed=1;endSize=8;rounded=0;exitX=-0.2;exitY=1;exitDx=0;exitDy=0;exitPerimeter=0;entryX=1.1;entryY=0.772;entryDx=0;entryDy=0;entryPerimeter=0;strokeWidth=2;" edge="1" parent="1" source="ZX4JJenaqiCQQKovVCNi-43" target="ZX4JJenaqiCQQKovVCNi-40">
          <mxGeometry relative="1" as="geometry">
            <mxPoint x="150" y="460" as="sourcePoint" />
            <mxPoint x="60" y="476" as="targetPoint" />
          </mxGeometry>
        </mxCell>
        <mxCell id="ZX4JJenaqiCQQKovVCNi-65" value="put tasks to cache" style="html=1;verticalAlign=bottom;endArrow=block;entryX=-0.093;entryY=0.117;rounded=0;entryDx=0;entryDy=0;entryPerimeter=0;exitX=1.02;exitY=0.856;exitDx=0;exitDy=0;exitPerimeter=0;strokeWidth=2;" edge="1" target="ZX4JJenaqiCQQKovVCNi-64" parent="1" source="ZX4JJenaqiCQQKovVCNi-40">
          <mxGeometry relative="1" as="geometry">
            <mxPoint x="740" y="481" as="sourcePoint" />
            <mxPoint x="817" y="480.68399999999997" as="targetPoint" />
          </mxGeometry>
        </mxCell>
        <mxCell id="ZX4JJenaqiCQQKovVCNi-66" value="return amount" style="html=1;verticalAlign=bottom;endArrow=open;dashed=1;endSize=8;exitX=0;exitY=0.95;rounded=0;entryX=0.989;entryY=0.996;entryDx=0;entryDy=0;entryPerimeter=0;strokeWidth=2;" edge="1" source="ZX4JJenaqiCQQKovVCNi-64" parent="1" target="ZX4JJenaqiCQQKovVCNi-40">
          <mxGeometry relative="1" as="geometry">
            <mxPoint x="60" y="519" as="targetPoint" />
          </mxGeometry>
        </mxCell>
      </root>
    </mxGraphModel>
  </diagram>
  <diagram id="LIcxh48gzRsA23Tk4oKh" name="Build Task">
    <mxGraphModel dx="1038" dy="579" grid="1" gridSize="10" guides="1" tooltips="1" connect="1" arrows="1" fold="1" page="1" pageScale="1" pageWidth="827" pageHeight="1169" math="0" shadow="0">
      <root>
        <mxCell id="0" />
        <mxCell id="1" parent="0" />
      </root>
    </mxGraphModel>
  </diagram>
  <diagram id="6s_dP_aKQCFtvaxSR-DS" name="Get Task">
    <mxGraphModel dx="1038" dy="579" grid="1" gridSize="10" guides="1" tooltips="1" connect="1" arrows="1" fold="1" page="1" pageScale="1" pageWidth="827" pageHeight="1169" math="0" shadow="0">
      <root>
        <mxCell id="0" />
        <mxCell id="1" parent="0" />
      </root>
    </mxGraphModel>
  </diagram>
  <diagram id="lN4eCf7K8FgEfOsENCWr" name="Complete Task">
    <mxGraphModel dx="1038" dy="521" grid="1" gridSize="10" guides="1" tooltips="1" connect="1" arrows="1" fold="1" page="1" pageScale="1" pageWidth="827" pageHeight="1169" math="0" shadow="0">
      <root>
        <mxCell id="0" />
        <mxCell id="1" parent="0" />
      </root>
    </mxGraphModel>
  </diagram>
</mxfile>
